<?xml version="1.0" encoding="UTF-8" standalone="no"?>
<svg
   xmlns:dc="http://purl.org/dc/elements/1.1/"
   xmlns:cc="http://creativecommons.org/ns#"
   xmlns:rdf="http://www.w3.org/1999/02/22-rdf-syntax-ns#"
   xmlns:svg="http://www.w3.org/2000/svg"
   xmlns="http://www.w3.org/2000/svg"
   xmlns:sodipodi="http://sodipodi.sourceforge.net/DTD/sodipodi-0.dtd"
   xmlns:inkscape="http://www.inkscape.org/namespaces/inkscape"
   id="svg2"
   sodipodi:docname="favicon.svg"
   inkscape:export-filename="pencil-fist.png"
   viewBox="0 0 553.97 790.84"
   inkscape:export-xdpi="96"
   version="1.1"
   inkscape:export-ydpi="96"
   inkscape:version="1.0.2 (e86c870879, 2021-01-15)">
  <defs
     id="defs10" />
  <sodipodi:namedview
     id="base"
     bordercolor="#666666"
     inkscape:pageshadow="2"
     inkscape:window-y="0"
     fit-margin-left="20"
     pagecolor="#000000"
     inkscape:window-height="656"
     inkscape:window-maximized="1"
     inkscape:zoom="0.5"
     inkscape:window-x="0"
     showgrid="false"
     borderopacity="1.0"
     inkscape:current-layer="layer1"
     inkscape:cx="330.7305"
     inkscape:cy="451.26794"
     fit-margin-top="20"
     fit-margin-right="20"
     fit-margin-bottom="20"
     inkscape:window-width="1280"
     inkscape:pageopacity="0"
     inkscape:document-units="px"
     inkscape:document-rotation="0" />
  <g
     id="layer1"
     inkscape:label="Layer 1"
     inkscape:groupmode="layer"
     transform="translate(-341.13 -16.948)">
    <path
       id="path3003"
       sodipodi:nodetypes="ccccccccccccccccccc"
       style="fill:#ffffff"
       inkscape:connector-curvature="0"
       d="m650.57 103.07-91.062 30.031-83.188 50.812-68.062 67.688-56.875 71.375 111.81 133.59-3.2812 2-64.312-78.688 24.312 114.88 57.875 57.375 12.25 248.41 255.03-56.312-40.625-221.97 110.47-212.56-93.281-137.12-1.5 0.46875-0.59375 0.21875-26.562 8.4688z" />
    <path
       id="rect3848"
       style="color:#000000;fill:#000000;fill-opacity:1"
       d="m547.16 17.625-131.81 58.312-72.719 74.25 5.0938 9.4688h1.2812v2.3438l5.6875 10.562 26.562-8.4688 0.59375-0.21875 1.5-0.46875 39.25 57.688 69.188-70.656zm-301.36 364.28-4.1324-3.079-115.43 75.147-37.47-43.301-75.795 76.235 76.438 74.438 139.22-144.48z"
       sodipodi:nodetypes="ccccccccccccccccccccc"
       inkscape:connector-curvature="0"
       transform="translate(338.29 9.1672)" />
    <path
       id="path3861"
       style="color:#000000;fill:#000000"
       sodipodi:type="star"
       sodipodi:sides="3"
       inkscape:transform-center-x="309.60371"
       sodipodi:r1="32.249031"
       sodipodi:r2="16.124516"
       sodipodi:arg1="0.52359878"
       sodipodi:arg2="1.5707963"
       transform="matrix(.58093 .66229 -.78940 .89996 807.02 -273.14)"
       inkscape:randomized="0"
       sodipodi:cy="153.36218"
       sodipodi:cx="287"
       inkscape:rounded="0"
       inkscape:flatsided="true"
       d="m314.93 169.49h-55.857l27.93-48.38z" />
    <path
       id="path3907"
       style="block-progression:tb;text-indent:0;color:#000000;text-transform:none;fill:#000000"
       inkscape:connector-curvature="0"
       d="m551.81 7.7812-7.5312 3.3438-133.12 58.844-66.844 68.312-28.531-53.031-98.5 32.719-84.406 51.844-70.188 70.25-58.812 73.875 37.906 45.594 18.125 69.219-57.062 58.281 86.688 84.469 37.781-38.531 6.875 34.438 7.0312 231.22 274-56.594-41.594-223.5l111.45-218.23-53.28-78.31 66.03-67.5 58.97-141.5-5-5.2188zm-18.125 23.625-1.9375 4.625-46.312 110.75-61.844 63.156-37.312-54.938-27.438 10.25-6.4062-14.844 67.375-68.625 113.88-50.375zm-224.84 71.125 0.46875 0.875 0.3125 0.625 34.844 64.656-71.75 26.25l-40.71-67.09 76.844-25.312zm-90 31.219 1.0625 1.7188 39.375 64.844-55.375 22.75 22.688 51.281l56.41 18.91 20.344 6 9.5312 4-44.938 39.656-9.85-10.47-109.84-155.56 70.59-43.13zm161.53 38 0.5625 0.8125 0.34375 0.5 86.906 127.69-109.5 214.94 39.656 212.38-244.06 56.062-7.25-231.66-7.9375-33.312 80.719-82.438 13.656 47 7.3438-0.875-6.2188-56.875 46.594-75.875 52.125-45.344 32.781-19.438-7.125-20.656l-45.4 21.67-76.18-23.12-13.97-31.1 156.97-60.34zm-243.31 14 1.3438 1.9375l116.91 165.65-56.84 41.47-118.97-151.84 57.56-57.22zm-67.156 68.188 1.5625 2 115.19 147.03-57.844 37.969-106.5-127.22 47.594-59.781zm170.38 128.12 2.0938 3.125-17.656 27.938-135.44 138.19-66.25-64.531l67.48-69.34 35.469 42.406 81.562-53.5 32.75-24.281zm-177.66 2.38 19.156 23.12-9.531 10.72-9.625-33.84z"
       transform="translate(338.29 9.1672)" />
  </g>
  <metadata
     id="metadata10">
    <rdf:RDF>
      <cc:Work>
        <dc:format>image/svg+xml</dc:format>
        <dc:type
           rdf:resource="http://purl.org/dc/dcmitype/StillImage" />
        <cc:license
           rdf:resource="http://creativecommons.org/licenses/publicdomain/" />
        <dc:publisher>
          <cc:Agent
             rdf:about="http://openclipart.org/">
            <dc:title>Openclipart</dc:title>
          </cc:Agent>
        </dc:publisher>
      </cc:Work>
      <cc:License
         rdf:about="http://creativecommons.org/licenses/publicdomain/">
        <cc:permits
           rdf:resource="http://creativecommons.org/ns#Reproduction" />
        <cc:permits
           rdf:resource="http://creativecommons.org/ns#Distribution" />
        <cc:permits
           rdf:resource="http://creativecommons.org/ns#DerivativeWorks" />
      </cc:License>
    </rdf:RDF>
  </metadata>
</svg>
